<?xml version="1.0" standalone="no"?>
<!DOCTYPE svg PUBLIC "-//W3C//DTD SVG 20010904//EN"
 "http://www.w3.org/TR/2001/REC-SVG-20010904/DTD/svg10.dtd">
<svg version="1.0" xmlns="http://www.w3.org/2000/svg"
 width="700.000000pt" height="700.000000pt" viewBox="0 0 700.000000 700.000000"
 preserveAspectRatio="xMidYMid meet">
<metadata>
Created by potrace 1.14, written by Peter Selinger 2001-2017
</metadata>
<g transform="translate(0.000000,700.000000) scale(0.100000,-0.100000)"
fill="#000000" stroke="none">
<path d="M1697 6124 c-1 -1 -30 -5 -64 -8 -179 -19 -377 -120 -510 -260 -130
-136 -224 -329 -240 -493 -9 -94 -9 -3664 1 -3738 16 -130 85 -292 172 -406
143 -187 349 -304 590 -337 69 -9 3697 -7 3734 2 14 3 41 9 59 12 54 9 170 53
231 87 164 92 294 231 373 398 26 55 63 178 74 242 11 68 9 1022 -2 1083 -31
167 -160 302 -328 345 -66 16 -189 7 -260 -21 -113 -43 -216 -151 -253 -267
-10 -32 -19 -62 -20 -68 0 -5 -2 -220 -2 -477 l-2 -468 -1750 0 -1750 0 0
1750 0 1750 1120 2 c616 0 1126 1 1133 2 26 1 123 37 162 61 58 33 136 122
168 188 58 123 53 277 -14 395 -59 106 -169 190 -278 213 -42 10 -332 13
-1199 13 -629 1 -1144 0 -1145 0z"/>
<path d="M6271 6118 c-29 -4 -83 -22 -120 -39 -62 -30 -142 -107 -1243 -1208
-647 -646 -1181 -1177 -1187 -1179 -5 -2 -92 79 -193 180 -194 194 -252 240
-333 263 -242 70 -491 -66 -555 -304 -16 -62 -16 -167 0 -226 28 -103 68 -149
437 -519 197 -197 377 -371 399 -387 38 -26 101 -52 158 -66 78 -18 207 2 297
47 58 29 2723 2688 2779 2772 93 142 92 336 -3 477 -98 144 -262 216 -436 189z"/>
</g>
</svg>
